:FULLY-SPECIFIED
:FORCE-ALL-JOINTS-BE-3DOF
:DEGREES
102
root 7.39978 16.6605 -26.7148 4.2416 10.6534 -4.09436
lfemur -27.6195 -5.18471 -10.1383
ltibia 39.5847 0 0
lfoot -18.547 -2.78247 0
ltoes 15.6645 0 0
rfemur -31.1671 -9.98809 8.20199
rtibia 73.2016 0 0
rfoot 11.4693 17.408 0
rtoes -10.6712 0 0
lowerback 0.510737 2.14829 1.0128
upperback -1.40286 2.89591 1.87019
thorax -1.75854 1.44739 1.29556
lowerneck -10.3245 -4.94362 2.39478
upperneck -0.909156 -6.85551 0.958763
head 1.39737 -3.39209 -0.389876
lclavicle 3.00728e-14 5.05626e-15 0
lhumerus -47.0391 -7.93074 93.2694
lradius 48.401 0 0
lwrist 15.5406 0 0
lhand 7.2528 8.10769 0
lfingers 7.12502 0 0
lthumb 32.5177 35.2222 0
rclavicle 3.00728e-14 5.05626e-15 0
rhumerus -42.8821 0.100174 -72.706
rradius 50.7812 0 0
rwrist -1.7111 0 0
rhand -18.2556 -13.3594 0
rfingers 7.12502 0 0
rthumb 8.02285 -43.1651 0
103
root 7.43611 16.6777 -26.6959 3.62619 11.032 -3.75842
lfemur -26.6448 -4.46326 -10.8907
ltibia 39.0274 0 0
lfoot -18.2961 -4.13015 0
ltoes 18.1179 0 0
rfemur -33.7588 -8.5552 6.35772
rtibia 77.7903 0 0
rfoot 18.1306 19.223 0
rtoes -2.03079 0 0
lowerback 1.13624 1.91322 0.602328
upperback -1.14375 2.58176 1.91048
thorax -1.85858 1.29529 1.55267
lowerneck -10.3967 -4.92425 2.34256
upperneck -0.804911 -6.8276 0.93167
head 1.4453 -3.37722 -0.393351
lclavicle 1.69454e-14 3.04219e-15 0
lhumerus -47.0596 -8.65733 93.5151
lradius 48.7195 0 0
lwrist 15.5211 0 0
lhand 7.6302 8.47105 0
lfingers 7.12502 0 0
lthumb 32.8763 35.507 0
rclavicle 1.69454e-14 3.04219e-15 0
rhumerus -42.8391 0.375015 -71.7772
rradius 50.636 0 0
rwrist -0.496309 0 0
rhand -19.3872 -13.9474 0
rfingers 7.12502 0 0
rthumb 6.93068 -43.7919 0
104
root 7.46945 16.6958 -26.6788 2.97755 11.4266 -3.45374
lfemur -25.6466 -3.71325 -11.6096
ltibia 38.4672 0 0
lfoot -18.0052 -5.45985 0
ltoes 20.5971 0 0
rfemur -36.3446 -7.12769 4.52215
rtibia 82.1215 0 0
rfoot 24.3296 20.6862 0
rtoes 6.37415 0 0
lowerback 1.79421 1.6644 0.221075
upperback -0.867733 2.24952 1.95336
thorax -1.95595 1.1338 1.80085
lowerneck -10.4722 -4.89828 2.28836
upperneck -0.708291 -6.79026 0.900702
head 1.49156 -3.35796 -0.397224
lclavicle 4.73151e-15 1.09578e-15 0
lhumerus -47.0185 -9.39458 93.7356
lradius 48.9877 0 0
lwrist 15.4468 0 0
lhand 7.92831 8.76198 0
lfingers 7.12502 0 0
lthumb 33.1593 35.7329 0
rclavicle 4.73151e-15 1.09578e-15 0
rhumerus -42.7882 0.668183 -70.8764
rradius 50.5106 0 0
rwrist 0.887172 0 0
rhand -20.4847 -14.5878 0
rfingers 7.12502 0 0
rthumb 5.87138 -44.4697 0
105
root 7.50067 16.7139 -26.663 2.29868 11.842 -3.20428
lfemur -24.6378 -3.01911 -12.2468
ltibia 37.9193 0 0
lfoot -17.6806 -6.68922 0
ltoes 22.9091 0 0
rfemur -38.8537 -5.82131 2.75415
rtibia 85.9962 0 0
rfoot 29.5713 21.6821 0
rtoes 13.618 0 0
lowerback 2.47105 1.40349 -0.0967726
upperback -0.582994 1.90224 1.99988
thorax -2.04955 0.963975 2.02438
lowerneck -10.5504 -4.86799 2.22988
upperneck -0.606657 -6.74635 0.864732
head 1.54008 -3.33562 -0.401762
lclavicle -4.96076e-15 -5.81719e-16 0
lhumerus -46.8986 -10.0938 93.9099
lradius 49.1695 0 0
lwrist 15.3256 0 0
lhand 8.15787 8.95076 0
lfingers 7.12502 0 0
lthumb 33.3771 35.871 0
rclavicle -4.96076e-15 -5.81719e-16 0
rhumerus -42.7562 0.962216 -70.0099
rradius 50.4477 0 0
rwrist 2.36696 0 0
rhand -21.4371 -15.2366 0
rfingers 7.12502 0 0
rthumb 4.95205 -45.1506 0
106
root 7.53062 16.7313 -26.6477 1.59258 12.283 -3.03397
lfemur -23.6313 -2.46527 -12.7543
ltibia 37.3992 0 0
lfoot -17.3285 -7.73592 0
ltoes 24.8613 0 0
rfemur -41.2156 -4.75181 1.11259
rtibia 89.2151 0 0
rfoot 33.361 22.0951 0
rtoes 18.775 0 0
lowerback 3.15315 1.13213 -0.317021
upperback -0.297715 1.54298 2.05108
thorax -2.13833 0.786902 2.20754
lowerneck -10.6307 -4.8356 2.16485
upperneck -0.487372 -6.69874 0.822634
head 1.59477 -3.31149 -0.407235
lclavicle -1.05232e-14 -1.78906e-15 0
lhumerus -46.6826 -10.7064 94.0168
lradius 49.2289 0 0
lwrist 15.1652 0 0
lhand 8.32967 9.00768 0
lfingers 7.12502 0 0
lthumb 33.5404 35.8923 0
rclavicle -1.05232e-14 -1.78906e-15 0
rhumerus -42.7698 1.23965 -69.1841
rradius 50.4904 0 0
rwrist 3.87067 0 0
rhand -22.1336 -15.8497 0
rfingers 7.12502 0 0
rthumb 4.27979 -45.7864 0
107
root 7.55732 16.7476 -26.6329 0.834173 12.7974 -2.96423
lfemur -22.6291 -2.04953 -13.1179
ltibia 36.9331 0 0
lfoot -16.9301 -8.63329 0
ltoes 26.5469 0 0
rfemur -43.5234 -3.85381 -0.503398
rtibia 92.0383 0 0
rfoot 35.6706 21.812 0
rtoes 21.8271 0 0
lowerback 3.85787 0.834403 -0.424112
upperback -0.0031252 1.15099 2.11273
thorax -2.22186 0.59203 2.34869
lowerneck -10.7161 -4.80477 2.08985
upperneck -0.346363 -6.65172 0.76869
head 1.65754 -3.28787 -0.41534
lclavicle -1.05178e-14 -2.71025e-15 0
lhumerus -46.3432 -11.2697 94.0483
lradius 49.1375 0 0
lwrist 14.9387 0 0
lhand 8.40825 8.87572 0
lfingers 7.12502 0 0
lthumb 33.6153 35.7458 0
rclavicle -1.05178e-14 -2.71025e-15 0
rhumerus -42.8323 1.53854 -68.4179
rradius 50.6039 0 0
rwrist 5.6392 0 0
rhand -22.7021 -16.5214 0
rfingers 7.12502 0 0
rthumb 3.73106 -46.4774 0
108
root 7.57935 16.7634 -26.6192 0.0124488 13.3968 -2.98093
lfemur -21.6205 -1.69612 -13.3757
ltibia 36.5159 0 0
lfoot -16.4733 -9.46564 0
ltoes 28.1684 0 0
rfemur -45.8709 -3.00264 -2.17977
rtibia 94.7294 0 0
rfoot 36.9306 20.8978 0
rtoes 23.5909 0 0
lowerback 4.60308 0.503549 -0.443253
upperback 0.310973 0.716641 2.18582
thorax -2.30097 0.374892 2.46126
lowerneck -10.8082 -4.77472 2.00577
upperneck -0.193505 -6.60415 0.701997
head 1.72552 -3.26436 -0.426403
lclavicle -5.89485e-15 -3.58551e-15 0
lhumerus -45.8866 -11.8393 94.0208
lradius 48.9179 0 0
lwrist 14.6299 0 0
lhand 8.37223 8.56227 0
lfingers 7.12502 0 0
lthumb 33.5811 35.4403 0
rclavicle -5.89485e-15 -3.58551e-15 0
rhumerus -42.9209 1.8871 -67.7121
rradius 50.7387 0 0
rwrist 7.81719 0 0
rhand -23.2841 -17.3222 0
rfingers 7.12502 0 0
rthumb 3.16948 -47.2997 0
109
root 7.59839 16.7793 -26.6069 -0.848527 14.0318 -3.05465
lfemur -20.5992 -1.3791 -13.5579
ltibia 36.1164 0 0
lfoot -15.9751 -10.2271 0
ltoes 29.6967 0 0
rfemur -48.1885 -2.22507 -3.83529
rtibia 97.0948 0 0
rfoot 37.3339 19.5042 0
rtoes 24.3933 0 0
lowerback 5.37595 0.154929 -0.401399
upperback 0.638535 0.259667 2.26426
thorax -2.37643 0.145676 2.55214
lowerneck -10.9042 -4.74104 1.91678
upperneck -0.0370858 -6.55082 0.628648
head 1.79552 -3.23825 -0.438639
lclavicle 1.37175e-15 -4.29792e-15 0
lhumerus -45.3459 -12.3943 93.949
lradius 48.6104 0 0
lwrist 14.2634 0 0
lhand 8.25346 8.13428 0
lfingers 7.12502 0 0
lthumb 33.4682 35.0364 0
rclavicle 1.37175e-15 -4.29792e-15 0
rhumerus -43.0235 2.25309 -67.0455
rradius 50.915 0 0
rwrist 10.1879 0 0
rhand -23.7884 -18.1725 0
rfingers 7.12502 0 0
rthumb 2.68288 -48.1691 0
110
root 7.61615 16.7959 -26.5962 -1.72469 14.6532 -3.15601
lfemur -19.5588 -1.07251 -13.6946
ltibia 35.7032 0 0
lfoot -15.4524 -10.9117 0
ltoes 31.1028 0 0
rfemur -50.4067 -1.54792 -5.38869
rtibia 98.941 0 0
rfoot 37.0736 17.7829 0
rtoes 24.561 0 0
lowerback 6.16368 -0.196095 -0.325507
upperback 0.973519 -0.200207 2.3419
thorax -2.449 -0.0854308 2.62818
lowerneck -11.0012 -4.69935 1.82707
upperneck 0.114611 -6.48646 0.554734
head 1.86433 -3.2068 -0.450259
lclavicle 9.30793e-15 -4.73055e-15 0
lhumerus -44.7541 -12.9133 93.848
lradius 48.2556 0 0
lwrist 13.8636 0 0
lhand 8.0838 7.65865 0
lfingers 7.12502 0 0
lthumb 33.3068 34.5947 0
rclavicle 9.30793e-15 -4.73055e-15 0
rhumerus -43.128 2.60428 -66.3971
rradius 51.1532 0 0
rwrist 12.5345 0 0
rhand -24.124 -18.9928 0
rfingers 7.12502 0 0
rthumb 2.35912 -49.0014 0
